<svg xmlns="http://www.w3.org/2000/svg" viewBox="0 0 32 32" fill="none">
  <defs>
    <linearGradient id="g" x1="4" y1="28" x2="28" y2="4">
      <stop stop-color="#1D4ED8"/>
      <stop offset="0.5" stop-color="#06B6D4"/>
      <stop offset="1" stop-color="#8B5CF6"/>
    </linearGradient>
  </defs>
  <rect width="32" height="32" rx="8" fill="#0F172A"/>
  <g transform="translate(4 4) scale(0.2)">
    <path d="M60 12c-18 0-32 14-36 32 2-10 8-18 16-24 8-6 18-8 28-4" stroke="url(#g)" stroke-width="8" stroke-linecap="round" fill="none"/>
    <path d="M60 108c18 0 32-14 36-32-2 10-8 18-16 24-8 6-18 8-28 4" stroke="url(#g)" stroke-width="8" stroke-linecap="round" fill="none" opacity=".9"/>
    <circle cx="52" cy="58" r="9" fill="url(#g)"/>
    <path d="M52 67c-2 14-2 22 18 28" stroke="url(#g)" stroke-width="9" stroke-linecap="round" fill="none"/>
    <circle cx="76" cy="32" r="4" fill="#FDE047"/>
  </g>
</svg>
