<svg xmlns="http://www.w3.org/2000/svg" viewBox="0 0 120 120" fill="none">
  <defs>
    <linearGradient id="arcGrad" x1="20" y1="100" x2="100" y2="20" gradientUnits="userSpaceOnUse">
      <stop stop-color="#1D4ED8"/>
      <stop offset="0.45" stop-color="#06B6D4"/>
      <stop offset="1" stop-color="#8B5CF6"/>
    </linearGradient>
    <linearGradient id="figGrad" x1="45" y1="85" x2="85" y2="25" gradientUnits="userSpaceOnUse">
      <stop stop-color="#2563EB"/>
      <stop offset="0.5" stop-color="#22D3EE"/>
      <stop offset="1" stop-color="#A78BFA"/>
    </linearGradient>
    <filter id="glow" x="-20%" y="-20%" width="140%" height="140%">
      <feDropShadow dx="0" dy="2" stdDeviation="3" flood-color="#06B6D4" flood-opacity="0.45"/>
    </filter>
  </defs>
  <g filter="url(#glow)">
    <path d="M60 12c-18 0-32 14-36 32 2-10 8-18 16-24 8-6 18-8 28-4" stroke="url(#arcGrad)" stroke-width="7" stroke-linecap="round" fill="none"/>
    <path d="M60 108c18 0 32-14 36-32-2 10-8 18-16 24-8 6-18 8-28 4" stroke="url(#arcGrad)" stroke-width="7" stroke-linecap="round" fill="none" opacity=".92"/>
    <circle cx="52" cy="58" r="9" fill="url(#figGrad)"/>
    <path d="M52 67c-2 14-2 22 18 28" stroke="url(#figGrad)" stroke-width="9" stroke-linecap="round" fill="none"/>
    <path d="M70 38l6-10 4 2-5 9" fill="#FDE047"/>
    <circle cx="76" cy="32" r="3.5" fill="#FFFFFF"/>
    <circle cx="76" cy="32" r="1.5" fill="#FDE047"/>
  </g>
</svg>
