<svg xmlns="http://www.w3.org/2000/svg" viewBox="0 0 320 200" fill="none">
  <defs>
    <linearGradient id="arcGrad" x1="40" y1="150" x2="120" y2="30" gradientUnits="userSpaceOnUse">
      <stop stop-color="#1D4ED8"/>
      <stop offset="0.4" stop-color="#06B6D4"/>
      <stop offset="0.75" stop-color="#22D3EE"/>
      <stop offset="1" stop-color="#8B5CF6"/>
    </linearGradient>
    <linearGradient id="figGrad" x1="55" y1="105" x2="95" y2="45" gradientUnits="userSpaceOnUse">
      <stop stop-color="#2563EB"/>
      <stop offset="0.5" stop-color="#06B6D4"/>
      <stop offset="1" stop-color="#C084FC"/>
    </linearGradient>
    <linearGradient id="fitGrad" x1="88" y1="118" x2="118" y2="158" gradientUnits="userSpaceOnUse">
      <stop stop-color="#059669"/>
      <stop offset="0.45" stop-color="#10B981"/>
      <stop offset="1" stop-color="#22D3EE"/>
    </linearGradient>
    <linearGradient id="novaGrad" x1="118" y1="118" x2="210" y2="158" gradientUnits="userSpaceOnUse">
      <stop stop-color="#38BDF8"/>
      <stop offset="0.45" stop-color="#2563EB"/>
      <stop offset="1" stop-color="#7C3AED"/>
    </linearGradient>
    <linearGradient id="aiGrad" x1="218" y1="118" x2="268" y2="158" gradientUnits="userSpaceOnUse">
      <stop stop-color="#7C3AED"/>
      <stop offset="0.5" stop-color="#C084FC"/>
      <stop offset="1" stop-color="#F472B6"/>
    </linearGradient>
    <filter id="glow" x="-10%" y="-10%" width="120%" height="120%">
      <feDropShadow dx="0" dy="2" stdDeviation="4" flood-color="#06B6D4" flood-opacity="0.35"/>
    </filter>
  </defs>
  <g transform="translate(100 8) scale(0.85)" filter="url(#glow)">
    <path d="M60 12c-18 0-32 14-36 32 2-10 8-18 16-24 8-6 18-8 28-4" stroke="url(#arcGrad)" stroke-width="7" stroke-linecap="round" fill="none"/>
    <path d="M60 108c18 0 32-14 36-32-2 10-8 18-16 24-8 6-18 8-28 4" stroke="url(#arcGrad)" stroke-width="7" stroke-linecap="round" fill="none" opacity=".92"/>
    <circle cx="52" cy="58" r="9" fill="url(#figGrad)"/>
    <path d="M52 67c-2 14-2 22 18 28" stroke="url(#figGrad)" stroke-width="9" stroke-linecap="round" fill="none"/>
    <path d="M70 38l6-10 4 2-5 9" fill="#FDE047"/>
    <circle cx="76" cy="32" r="3.5" fill="#FFFFFF"/>
    <circle cx="76" cy="32" r="1.5" fill="#FDE047"/>
  </g>
  <text x="160" y="138" text-anchor="middle" font-family="system-ui, -apple-system, Segoe UI, sans-serif" font-size="42" font-weight="800" font-style="italic" letter-spacing="-1">
    <tspan fill="url(#fitGrad)">Fit</tspan><tspan fill="url(#novaGrad)">Nova</tspan><tspan fill="url(#aiGrad)"> AI</tspan>
  </text>
  <text x="160" y="168" text-anchor="middle" fill="#0F766E" font-family="system-ui, sans-serif" font-size="13" font-weight="600" letter-spacing="0.12em" opacity="0.9">
    INTELLIGENT FITNESS &amp; NUTRITION
  </text>
</svg>
